<svg xmlns="http://www.w3.org/2000/svg" width="100" height="100" viewBox="0 0 100 100" fill="none">
  <path d="M50 100C77.6142 100 100 77.6142 100 50C100 22.3858 77.6142 0 50 0C22.3858 0 0 22.3858 0 50C0 77.6142 22.3858 100 50 100Z" fill="#777E90"/>
  <path d="M83.3333 50C83.3333 45.9649 80.0585 42.6901 76.0234 42.6901C74.0351 42.6901 72.2807 43.4503 70.9941 44.7369C66.0234 41.1696 59.1228 38.8304 51.5205 38.538L54.8538 22.924L65.6725 25.2047C65.7895 27.9532 68.0702 30.1755 70.8772 30.1755C73.7427 30.1755 76.0819 27.8363 76.0819 24.9708C76.0819 22.1053 73.7427 19.7661 70.8772 19.7661C68.8304 19.7661 67.076 20.9357 66.2573 22.6901L54.152 20.117C53.8012 20.0585 53.4503 20.117 53.1579 20.2924C52.8655 20.4679 52.6901 20.7603 52.5731 21.1111L48.8889 38.538C41.1111 38.772 34.152 41.0527 29.1228 44.7369C27.8363 43.5088 26.0234 42.6901 24.0936 42.6901C20.0585 42.6901 16.7836 45.9649 16.7836 50C16.7836 52.9825 18.538 55.4971 21.1111 56.6667C20.9942 57.3685 20.9357 58.1287 20.9357 58.8889C20.9357 70.117 33.9766 79.1813 50.117 79.1813C66.2573 79.1813 79.2982 70.117 79.2982 58.8889C79.2982 58.1287 79.2398 57.4269 79.1228 56.7252C81.5205 55.5556 83.3333 52.9825 83.3333 50ZM33.3333 55.2047C33.3333 52.3392 35.6725 50 38.538 50C41.4035 50 43.7427 52.3392 43.7427 55.2047C43.7427 58.0702 41.4035 60.4094 38.538 60.4094C35.6725 60.4094 33.3333 58.0702 33.3333 55.2047ZM62.3977 68.9474C58.8304 72.5146 52.0468 72.7486 50.0585 72.7486C48.0702 72.7486 41.2281 72.4562 37.7193 68.9474C37.193 68.4211 37.193 67.5439 37.7193 67.0176C38.2456 66.4913 39.1228 66.4913 39.6491 67.0176C41.8713 69.2398 46.6667 70.0585 50.117 70.0585C53.5673 70.0585 58.3041 69.2398 60.5848 67.0176C61.1111 66.4913 61.9883 66.4913 62.5146 67.0176C62.924 67.6024 62.924 68.4211 62.3977 68.9474ZM61.462 60.4094C58.5965 60.4094 56.2573 58.0702 56.2573 55.2047C56.2573 52.3392 58.5965 50 61.462 50C64.3275 50 66.6667 52.3392 66.6667 55.2047C66.6667 58.0702 64.3275 60.4094 61.462 60.4094Z" fill="white"/>
</svg>