<svg xmlns="http://www.w3.org/2000/svg" width="66" height="66" viewBox="0 0 66 66" fill="none">
<path d="M23 59.2001L0.5 65.5001L6.8 43.0002L48 2.00022C48.4655 1.52399 49.022 1.1456 49.6355 0.887265C50.2495 0.628925 50.909 0.49585 51.575 0.49585C52.241 0.49585 52.9005 0.628925 53.5145 0.887265C54.128 1.1456 54.6845 1.52399 55.15 2.00022L64 10.9002C64.4685 11.365 64.8405 11.9181 65.0945 12.5273C65.3485 13.1366 65.479 13.7902 65.479 14.4502C65.479 15.1103 65.3485 15.7638 65.0945 16.3731C64.8405 16.9824 64.4685 17.5354 64 18.0002L23 59.2001Z" stroke="#FED493" stroke-linecap="round" stroke-linejoin="round"/>
</svg>