<svg xmlns="http://www.w3.org/2000/svg" width="36" height="36" viewBox="0 0 36 36" fill="none">
<path d="M18 24L17.6464 24.3536L18 24.7071L18.3536 24.3536L18 24ZM18.5 6C18.5 5.72386 18.2761 5.5 18 5.5C17.7239 5.5 17.5 5.72386 17.5 6L18.5 6ZM8.64645 15.3536L17.6464 24.3536L18.3536 23.6464L9.35355 14.6464L8.64645 15.3536ZM18.3536 24.3536L27.3536 15.3536L26.6464 14.6464L17.6464 23.6464L18.3536 24.3536ZM18.5 24L18.5 6L17.5 6L17.5 24L18.5 24Z" fill="#222222"/>
<path d="M7.5 31.5H28.5" stroke="#222222"/>
</svg>