<svg xmlns="http://www.w3.org/2000/svg" width="34" height="34" viewBox="0 0 34 34" fill="none">
<circle cx="12.75" cy="12.75" r="5.66667" fill="black"/>
<path fill-rule="evenodd" clip-rule="evenodd" d="M20.5019 26.1023C20.6264 26.5694 21.0352 26.9167 21.5187 26.9167H24.3672C24.9687 26.9167 25.4214 26.3897 25.2499 25.8132C24.7594 24.1646 23.3893 21.25 19.8333 21.25C19.6513 21.25 19.475 21.2576 19.3042 21.2724C18.539 21.3383 18.4014 22.2813 18.8907 22.8734C18.908 22.8943 18.9252 22.9152 18.9421 22.9363C19.7812 23.975 20.2445 25.1366 20.5019 26.1023ZM19.3457 25.7391C19.5528 26.3357 19.0757 26.9167 18.4442 26.9167H15.2994C14.6979 26.9167 14.2451 26.3904 14.4166 25.8138C14.68 24.9283 15.1972 23.6773 16.1707 22.709C16.4647 22.4165 16.9278 22.395 17.2516 22.654C18.352 23.5342 18.9834 24.6958 19.3457 25.7391Z" fill="black"/>
<path d="M12.75 21.25C18.1665 21.25 19.4411 25.3919 19.741 27.3412C19.825 27.8871 19.3856 28.3333 18.8333 28.3333H6.66666C6.11437 28.3333 5.67497 27.8871 5.75896 27.3412C6.0589 25.3919 7.3335 21.25 12.75 21.25Z" fill="black"/>
<path fill-rule="evenodd" clip-rule="evenodd" d="M17.3258 17.5984C18.6132 16.383 19.4167 14.6603 19.4167 12.75C19.4167 11.7825 19.2106 10.8632 18.8399 10.0334C19.1586 9.95711 19.4912 9.91669 19.8333 9.91669C22.1806 9.91669 24.0833 11.8195 24.0833 14.1667C24.0833 16.5139 22.1806 18.4167 19.8333 18.4167C18.8955 18.4167 18.0287 18.1129 17.3258 17.5984ZM16.5919 16.9155C17.7139 15.8801 18.4167 14.3972 18.4167 12.75C18.4167 11.9044 18.2314 11.102 17.8993 10.3812C16.5244 11.0851 15.5833 12.516 15.5833 14.1667C15.5833 15.2149 15.9628 16.1745 16.5919 16.9155Z" fill="black"/>
<path d="M19 3V7" stroke="black" stroke-width="2" stroke-linecap="round"/>
<path d="M21 5L17 5" stroke="black" stroke-width="2" stroke-linecap="round"/>
</svg>