<svg xmlns="http://www.w3.org/2000/svg" width="36" height="36" viewBox="0 0 36 36" fill="none">
<path d="M4.5 13C4.5 11.1144 4.5 10.1716 5.08579 9.58579C5.67157 9 6.61438 9 8.5 9H27.5C29.3856 9 30.3284 9 30.9142 9.58579C31.5 10.1716 31.5 11.1144 31.5 13V23C31.5 24.8856 31.5 25.8284 30.9142 26.4142C30.3284 27 29.3856 27 27.5 27H8.5C6.61438 27 5.67157 27 5.08579 26.4142C4.5 25.8284 4.5 24.8856 4.5 23V13Z" fill="white"/>
<circle cx="9" cy="22.5" r="1.5" fill="#222222"/>
<rect x="4.5" y="13.5" width="27" height="3" fill="#222222"/>
</svg>