<svg width="34" height="34" viewBox="0 0 34 34" fill="none" xmlns="http://www.w3.org/2000/svg">
<path d="M10.625 4.95831V9.20831" stroke="black" stroke-linecap="round"/>
<path d="M10.625 20.5416V26.2083" stroke="black" stroke-linecap="round"/>
<path d="M9.3 9.41663C8.58203 9.41663 8 9.99866 8 10.7166V19.0333C8 19.7513 8.58203 20.3333 9.3 20.3333H11.95C12.668 20.3333 13.25 19.7513 13.25 19.0333V10.7166C13.25 9.99866 12.668 9.41663 11.95 9.41663H9.3Z" stroke="black"/>
<path d="M23.375 9.20831V16.2916" stroke="black" stroke-linecap="round"/>
<path d="M23.375 23.375V29.0417" stroke="black" stroke-linecap="round"/>
<path d="M22.05 16.5C21.332 16.5 20.75 17.082 20.75 17.8V21.8667C20.75 22.5846 21.332 23.1667 22.05 23.1667H24.7C25.418 23.1667 26 22.5846 26 21.8667V17.8C26 17.082 25.418 16.5 24.7 16.5H22.05Z" stroke="black"/>
</svg>
